<svg width="34" height="34" viewBox="0 0 34 34" fill="none" xmlns="http://www.w3.org/2000/svg">
<rect width="34" height="34" fill="#F5F5F5"/>
<rect width="1920" height="8969" transform="translate(-576 -2450)" fill="#F7F7F8"/>
<rect x="-415" y="-333" width="519" height="437" rx="12" fill="white"/>
<rect x="-19.5" y="-19.5" width="73" height="73" rx="7.5" fill="#FCFCFD"/>
<rect x="-19.5" y="-19.5" width="73" height="73" rx="7.5" stroke="#F1F1F3"/>
<path fill-rule="evenodd" clip-rule="evenodd" d="M8.87344 25.1266C9.37136 25.6245 10.1786 25.6245 10.6766 25.1266L22.95 12.8531V22.525C22.95 23.2292 23.5208 23.8 24.225 23.8C24.9292 23.8 25.5 23.2292 25.5 22.525V9.775C25.5 9.07084 24.9292 8.5 24.225 8.5H11.475C10.7708 8.5 10.2 9.07084 10.2 9.775C10.2 10.4792 10.7708 11.05 11.475 11.05H21.1469L8.87344 23.3234C8.37552 23.8214 8.37552 24.6286 8.87344 25.1266Z" fill="#FF9500"/>
</svg>
